<?xml version="1.0" encoding="utf-8"?>
<!-- Generator: Adobe Illustrator 24.1.1, SVG Export Plug-In . SVG Version: 6.00 Build 0)  -->
<svg version="1.1" id="Capa_1" xmlns="http://www.w3.org/2000/svg" xmlns:xlink="http://www.w3.org/1999/xlink" x="0px" y="0px"
	 viewBox="0 0 288 172.34" style="enable-background:new 0 0 288 172.34;" xml:space="preserve">
<style type="text/css">
	.st0{fill:#FDFDFD;}
	.st1{fill:#E17334;}
	.st2{fill:#E17335;}
</style>
<g>
	<path class="st0" d="M-40.63-44.17"/>
	<path class="st0" d="M346.63,223.51c0,0.49-0.03,0.97-0.04,1.46c-0.52,0.22-1.06,0.1-1.58,0.1"/>
	<path class="st1" d="M111.43,87.48c0.73-1.28,1.47-2.56,2.18-3.85c3.75-6.83,7.63-13.58,11.87-20.12
		c6.13-9.44,12.72-18.54,20.27-26.91c3.67-4.07,7.52-7.96,11.79-11.41c1.96-1.58,3.96-3.1,6.18-4.31c2.74-1.5,5.6-2.67,8.65-3.35
		c2.43-0.54,4.87-0.71,7.33-0.17c1.27,0.28,2.43,0.8,3.47,1.59c1.21,0.93,1.81,2.18,1.92,3.68c0.08,1.2-0.14,2.35-0.42,3.51
		c-0.57,2.36-1.64,4.52-2.82,6.64c-1.06,1.89-2.21,3.73-3.41,5.53c-4.13,6.2-8.28,12.38-12.41,18.59
		c-8.94,13.45-16.74,27.54-23.65,42.13c-3.29,6.95-6.24,14.05-8.56,21.4c-0.94,2.96-1.74,5.96-2.2,9.04
		c-0.33,2.19-0.54,4.41-0.11,6.62c0.1,0.53,0.23,1.07,0.44,1.56c0.63,1.52,2.23,2.37,3.85,2.09c0.98-0.17,1.9-0.53,2.73-1.09
		c3.25-2.21,5.59-5.14,6.91-8.86c0.14-0.4,0.23-0.81,0.3-1.22c0.16-0.94,0.35-1.86,1.03-2.58c0.28-0.3,0.22-0.63,0.08-0.96
		c-0.54-1.22-0.96-2.48-1.29-3.77c-0.96-3.74-1.62-7.52-1.31-11.4c0.2-2.42,0.64-4.79,1.76-6.98c0.2-0.39,0.41-0.79,0.64-1.17
		c1.33-2.22,3.31-3.46,5.86-3.82c0.88-0.13,1.77-0.12,2.66-0.05c0.71,0.05,1.4,0.25,2.03,0.59c1.38,0.74,2.6,1.71,3.67,2.85
		c0.2,0.21,0.33,0.49,0.44,0.76c0.15,0.37-0.14,0.79-0.56,0.86c-0.37,0.07-0.69-0.03-0.98-0.24c-0.48-0.34-0.95-0.71-1.43-1.05
		c-0.93-0.67-1.9-1.22-3.04-1.45c-1.51-0.31-2.72,0.14-3.61,1.39c-0.44,0.61-0.67,1.32-0.88,2.02c-0.54,1.81-0.76,3.67-0.83,5.54
		c-0.19,5.35,0.24,10.64,1.64,15.82c0.46,1.72,1.1,3.37,2.07,4.88c0.41,0.63,0.88,1.2,1.46,1.65c1.32,1.03,2.8,0.94,4-0.23
		c0.72-0.7,1.18-1.57,1.57-2.48c0.74-1.74,1.1-3.58,1.26-5.45c0.08-0.98,0.13-1.97,0.12-2.96c-0.05-4.29-0.09-8.58-0.28-12.87
		c-0.13-2.91-0.14-5.82-0.23-8.73c-0.03-0.91,0.35-1.5,1.13-1.9c1.13-0.59,2.28-0.87,3.56-0.51c1,0.28,1.73,1.2,1.64,2.18
		c-0.04,0.44-0.03,0.89-0.06,1.33c-0.33,4.14-0.29,8.27-0.02,12.41c0.14,2.22,0.3,4.42,0.67,6.61c0.42,2.48,0.95,4.94,1.97,7.26
		c0.28,0.63,0.61,1.23,0.97,1.82c0.34,0.55,0.8,1,1.39,1.29c0.51,0.25,1.03,0.31,1.57,0.1c0.7-0.27,1.31-0.65,1.84-1.2
		c1.25-1.3,2.13-2.84,2.83-4.48c0.91-2.14,1.55-4.36,2.12-6.61c1.35-5.32,1.46-10.73,1.14-16.16c-0.06-1.08-0.24-2.15-0.37-3.23
		c-0.06-0.48-0.29-0.8-0.75-1c-1.34-0.57-2.42-1.5-3.4-2.56c-2.74-2.94-4.73-6.3-5.59-10.26c-0.32-1.46-0.31-2.93,0.11-4.39
		c0.61-2.12,2.24-2.15,3.52-1.22c1.1,0.8,1.97,1.8,2.63,2.96c1.5,2.62,2.68,5.38,3.37,8.33c0.25,1.1,0.47,2.22,0.72,3.32
		c0.17,0.73,0.25,0.82,1.01,0.78c1.67-0.09,3.34-0.22,5.01-0.38c1.33-0.13,2.64-0.22,3.97,0.09c1.42,0.33,2.5,1.11,3.32,2.3
		c0.39,0.57,0.69,1.2,0.92,1.85c0.6,1.68,0.89,3.43,1.03,5.2c0.25,3.31,0.3,6.63,0.32,9.95c0.01,2.57,0.23,5.14,0.63,7.68
		c0.21,1.34,0.46,2.69,1.01,3.93c0.22,0.49,0.44,1,0.76,1.44c0.72,1.02,1.72,1.26,2.86,0.74c0.88-0.4,1.54-1.06,2.13-1.8
		c0.99-1.24,1.72-2.64,2.3-4.11c0.73-1.83,1.33-3.71,1.8-5.63c0.76-3.12,1.21-6.28,1.59-9.46c0.5-4.22,0.67-8.45,0.85-12.68
		c0.03-0.69,0.12-1.37,0.17-2.06c0.08-1.11,0.66-1.83,1.68-2.21c1.41-0.53,2.87-0.66,4.36-0.64c0.24,0,0.43,0.19,0.45,0.42
		c0.02,0.21,0.02,0.43,0.03,0.64c0.19,4.68,0.6,9.34,1.16,13.99c0.34,2.79,0.58,5.59,0.98,8.37c0.47,3.28,1.23,6.49,2.63,9.51
		c0.6,1.3,1.32,2.54,2.38,3.53c1.18,1.1,2.55,1.13,3.93,0.09c0.23-0.17,0.43-0.37,0.62-0.58c0.36-0.4,0.69-0.83,0.99-1.27
		c0.92-1.36,1.58-2.84,2.13-4.38c1.53-4.23,2.59-8.58,3.03-13.07c0.06-0.64,0.17-1.27,0.29-1.9c0.06-0.29,0.52-0.37,0.72-0.14
		c0.52,0.58,0.75,1.27,0.69,2.04c-0.09,1.03-0.19,2.06-0.33,3.09c-0.46,3.27-0.95,6.53-1.73,9.74c-0.4,1.68-0.84,3.35-1.49,4.95
		c-0.54,1.34-1.25,2.58-2.33,3.56c-1.97,1.79-4.22,2.22-6.7,1.23c-0.93-0.37-1.77-0.92-2.53-1.57c-2.9-2.48-4.73-5.64-6.13-9.09
		c-1.06-2.62-1.66-5.36-2.1-8.14c-0.39-2.43-0.8-4.86-1.21-7.29c-0.02-0.14-0.08-0.27-0.19-0.63c-0.15,1.52-0.26,2.82-0.41,4.11
		c-0.7,5.78-1.62,11.51-3.73,16.99c-0.59,1.52-1.28,2.99-2.24,4.32c-0.7,0.98-1.53,1.84-2.53,2.5c-1.78,1.18-4.07,1.33-5.89,0.22
		c-1.09-0.67-1.91-1.61-2.64-2.65c-1.38-1.98-2.17-4.21-2.76-6.52c-0.33-1.3-0.53-2.63-0.58-3.97c-0.06-1.56-0.13-3.12-0.1-4.68
		c0.06-2.67,0.01-5.32-0.24-7.98c-0.12-1.29-0.37-2.53-0.91-3.71c-0.55-1.2-1.45-1.97-2.74-2.27c-1.6-0.38-3.23-0.25-4.84-0.29
		c-0.21-0.01-0.39,0.16-0.38,0.37c0.01,0.44,0.04,0.89,0.09,1.32c0.29,2.15,0.46,4.31,0.51,6.48c0.1,4.26-0.39,8.45-1.35,12.61
		c-0.61,2.65-1.28,5.26-2.27,7.8c-0.59,1.52-1.34,2.96-2.34,4.27c-0.67,0.87-1.44,1.62-2.4,2.17c-1.95,1.13-4.03,0.97-5.78-0.46
		c-0.65-0.53-1.21-1.16-1.73-1.82c-1.28-1.65-2.27-3.46-3.05-5.39c-0.24-0.58-0.48-1.16-0.83-1.98c-0.25,1.63-0.44,2.98-0.67,4.33
		c-0.19,1.12-0.5,2.21-0.89,3.28c-1.27,3.48-4.77,5.11-8.27,3.83c-2.1-0.77-3.72-2.18-5.07-3.94c-0.3-0.39-0.58-0.78-0.86-1.15
		c-0.41,0.02-0.35,0.34-0.45,0.52c-0.09,0.17-0.12,0.38-0.17,0.56c-1.25,4.07-3.51,7.47-6.76,10.22c-1.44,1.22-3.01,2.24-4.78,2.9
		c-1.54,0.57-3.13,0.91-4.78,0.5c-2.44-0.6-4.28-1.96-5.26-4.33c-0.55-1.33-0.81-2.74-0.89-4.17c-0.19-3.12,0.2-6.2,0.74-9.26
		c1.25-7.11,3.46-13.96,5.92-20.72c2.34-6.44,5.11-12.71,7.97-18.93c5.3-11.53,11.58-22.53,18.23-33.32
		c3.08-4.99,6.18-9.97,9.24-14.97c1.49-2.44,2.9-4.93,4.13-7.51c0.63-1.34,1.2-2.7,1.55-4.14c0.15-0.63,0.2-1.27,0.15-1.91
		c-0.09-1-0.64-1.59-1.63-1.85c-0.54-0.14-1.06-0.13-1.61-0.05c-1.73,0.25-3.33,0.9-4.86,1.71c-3.07,1.61-5.89,3.59-8.56,5.78
		c-3.71,3.04-7.03,6.48-10.21,10.06c-7,7.87-13.01,16.47-18.52,25.43c-4.91,7.98-9.35,16.23-13.36,24.7
		c-5.99,12.67-11.16,25.66-15.02,39.15c-0.37,1.28-0.71,2.56-1.07,3.84c-0.57,2.02-1.7,3.64-3.38,4.9
		c-0.73,0.54-1.52,0.91-2.44,0.95c-1.47,0.07-2.44-0.59-2.87-2.02c-0.39-1.31-0.29-2.64-0.05-3.96c0.51-2.86,1.24-5.68,2.02-8.48
		c5-17.89,10.15-35.74,15.45-53.54c1.42-4.77,2.79-9.55,4.12-14.35c0.71-2.57,1.2-5.18,1.38-7.85c0.06-0.88,0.07-1.78,0.01-2.66
		c-0.17-2.43-1.53-3.21-3.73-2.14c-1.45,0.7-2.66,1.74-3.8,2.85c-1.81,1.76-3.5,3.64-5.09,5.6c-7.26,8.96-13.23,18.72-18.16,29.11
		c-5.82,12.27-10.45,24.99-14.51,37.94c-3.14,10.03-5.92,20.15-8.59,30.31c-0.03,0.11-0.06,0.29-0.08,0.4
		c-0.13,0.84-0.65,1.28-1.47,1.65c-2.44,1.08-4.63,2.62-6.79,4.18c-0.91,0.66-1.8,1.35-2.75,2.06c-0.28-0.38-0.08-0.69,0-0.99
		c1.65-5.83,3.3-11.66,4.93-17.5c1.96-7.03,3.57-14.14,4.99-21.29c0.89-4.5,1.65-9.01,2.27-13.55c0.56-4.15,1.05-8.31,1.33-12.49
		c0.29-4.18,0.51-8.37,0.46-12.56c-0.04-3.55-0.15-7.1-0.57-10.63c-0.38-3.19-1.01-6.32-2.29-9.3c-0.95-2.21-2.33-4.12-4.13-5.7
		c-1.84-1.61-3.97-2.51-6.45-2.59c-2.57-0.09-4.99,0.4-7.33,1.45c-3.71,1.67-6.8,4.16-9.46,7.2c-2.38,2.73-4.32,5.75-5.68,9.12
		c-0.67,1.66-1.05,3.39-1.23,5.16c-0.14,1.39,0.03,2.76,0.37,4.11c0.66,2.67,2.31,4.12,5.07,4.43c1.73,0.2,3.45,0.06,5.12-0.43
		c0.85-0.25,1.69-0.54,2.52-0.85c0.37-0.14,0.74-0.27,1.14-0.29c0.6-0.03,0.89,0.31,0.83,0.93c-0.04,0.36-0.19,0.66-0.42,0.92
		c-0.33,0.37-0.75,0.64-1.19,0.86c-1.83,0.87-3.73,1.5-5.72,1.92c-4.5,0.94-9.45-1.96-10.75-6.87c-0.88-3.32-0.57-6.55,0.57-9.73
		c1-2.8,2.39-5.41,4.12-7.83c4.48-6.28,10.04-11.36,16.95-14.88c3.05-1.56,6.28-2.61,9.69-3.01c2.92-0.34,5.81-0.2,8.55,1.05
		c3.11,1.42,5.46,3.66,7.1,6.66c1.41,2.58,2.2,5.38,2.71,8.25c0.59,3.31,0.84,6.65,0.89,10c0.06,4.14-0.13,8.28-0.49,12.41
		c-0.23,2.7-0.43,5.4-0.71,8.1c-0.3,2.84-0.68,5.67-1.03,8.51c-0.12,0.99-0.25,1.99-0.41,3.32c0.64-0.89,0.86-1.6,1.15-2.26
		c2.93-6.73,5.88-13.46,9.19-20.02c4.11-8.15,8.58-16.09,13.72-23.64c3.09-4.54,6.53-8.78,10.53-12.56
		c2.31-2.19,4.85-4.03,7.85-5.18c0.73-0.28,1.48-0.5,2.25-0.67c1.19-0.26,3.1-0.22,4.24,0.2c1.64,0.6,2.75,1.71,3.29,3.35
		c0.29,0.89,0.44,1.81,0.47,2.76c0.06,1.98-0.18,3.94-0.47,5.89c-0.78,5.13-2.18,10.11-3.59,15.09c-1.88,6.64-4.07,13.18-6.11,19.77
		c-0.3,0.98-0.78,1.92-0.77,2.99L111.43,87.48z"/>
	<path class="st1" d="M264.19,113.82c1.17-0.5,1.82-1.23,2.39-2.04c0.91-1.31,1.53-2.75,2.01-4.26c0.79-2.5,1.17-5.08,1.42-7.69
		c0.05-0.54,0.03-1.09,0.28-1.59c0.14-0.29,0.36-0.48,0.69-0.45c0.26,0.02,0.43,0.2,0.55,0.44c0.2,0.42,0.22,0.86,0.17,1.3
		c-0.34,2.89-0.67,5.77-1.38,8.6c-0.31,1.24-0.65,2.48-1.15,3.66c-0.27,0.63-0.55,1.27-0.89,1.87c-0.77,1.35-1.78,2.49-3.2,3.18
		c-0.5,0.24-0.71,0.58-0.8,1.11c-0.1,0.63-0.27,1.25-0.47,1.86c-0.56,1.69-1.57,3.06-3.02,4.09c-2.81,1.97-5.94,2.81-9.35,2.61
		c-0.49-0.03-0.99-0.12-1.45-0.28c-3.28-1.1-5.6-3.2-6.7-6.55c-0.22-0.67-0.25-1.36-0.17-2.05c0.13-1.18,0.76-1.87,1.92-2.15
		c0.38-0.09,0.78-0.13,1.17-0.14c2.08-0.08,4.13,0.11,6.18,0.41c1.96,0.29,3.92,0.43,5.89,0.11c0.71-0.11,0.84-0.22,0.79-0.96
		c-0.15-2.67-0.7-5.27-1.56-7.8c-0.85-2.5-2.15-4.75-3.74-6.84c-2.04-2.67-4.31-5.13-6.72-7.46c-0.14-0.14-0.29-0.27-0.44-0.39
		c-0.17-0.14-0.42-0.05-0.45,0.15c-0.02,0.15-0.03,0.29-0.03,0.44c-0.05,3.16-0.34,6.3-0.69,9.43c-0.28,2.5-0.67,4.98-1.15,7.45
		c-0.09,0.49-0.23,0.96-0.55,1.35c-0.14,0.16-0.32,0.23-0.52,0.2c-0.21-0.03-0.37-0.18-0.4-0.38c-0.05-0.34-0.11-0.69-0.07-1.02
		c0.09-0.83,0.22-1.66,0.34-2.49c0.47-3.12,0.84-6.25,0.98-9.4c0.09-2.07,0.27-4.13,0.44-6.19c0.07-0.82-0.11-1.46-0.65-2.15
		c-2.93-3.72-4.76-7.91-5.26-12.65c-0.11-1.08-0.22-2.15,0.01-3.23c0.42-1.99,1.91-2.76,3.77-1.92c0.65,0.29,1.16,0.74,1.55,1.33
		c0.41,0.62,0.74,1.28,0.99,1.98c0.89,2.47,1.56,4.98,1.53,7.64c-0.01,1.38,0.03,2.76-0.03,4.14c-0.03,0.66,0.19,1.12,0.66,1.55
		c1.66,1.55,3.35,3.06,5.14,4.45c1.32,1.03,2.57,2.15,3.78,3.31c3.89,3.74,6.21,8.34,7.52,13.51
		C263.81,111.12,264.04,112.37,264.19,113.82z"/>
	<path class="st1" d="M230.01,66.39c-0.08,3.11-1.06,5.6-3.32,7.51c-0.22,0.19-0.47,0.38-0.73,0.49c-1.01,0.41-2.04-0.29-2.07-1.39
		c-0.01-0.31,0.08-0.59,0.31-0.8c0.18-0.17,0.38-0.31,0.59-0.43c1.79-1.01,2.28-2.74,2.55-4.59c0.03-0.2-0.07-0.41-0.32-0.4
		c-2.17,0.07-3.13-1.36-3.83-3.09c-0.2-0.5-0.31-1.04-0.42-1.57c-0.06-0.28-0.06-0.59-0.03-0.88c0.18-1.57,1.44-3.03,3.63-2.3
		c0.81,0.27,1.48,0.78,1.99,1.47c0.42,0.56,0.7,1.18,0.92,1.84C229.75,63.66,229.86,65.13,230.01,66.39z"/>
	<path class="st2" d="M217.67,80.92c0.03,0.7-0.16,1.41-0.61,2.02c-0.54,0.75-1.27,1.04-2.19,0.83c-0.59-0.13-1.11-0.39-1.55-0.8
		c-1.31-1.21-2.08-2.71-2.37-4.46c-0.02-0.1-0.03-0.2-0.03-0.29c0.06-1.01,0.27-1.98,1.21-2.55c0.96-0.58,1.89-0.29,2.77,0.24
		C216.47,76.87,217.68,79.05,217.67,80.92z"/>
	<path class="st0" d="M111.43,87.48c-0.02,0.03-0.04,0.05-0.06,0.08c0.03-0.02,0.05-0.04,0.08-0.06
		C111.45,87.5,111.43,87.48,111.43,87.48z"/>
</g>
</svg>
